<svg width="45" height="45" viewBox="0 0 45 45" fill="none" xmlns="http://www.w3.org/2000/svg">
<circle cx="22.5" cy="22.5" r="22.5" fill="#CDE1FB"/>
<path d="M19.7455 27.3055L19.2433 27.8077C19.1763 27.8747 19.0993 27.9082 19.0123 27.9082C18.9252 27.9082 18.8482 27.8747 18.7812 27.8077L14.1004 23.1269C14.0335 23.0599 14 22.9829 14 22.8959C14 22.8088 14.0335 22.7318 14.1004 22.6649L18.7812 17.9841C18.8482 17.9171 18.9252 17.8836 19.0123 17.8836C19.0993 17.8836 19.1763 17.9171 19.2433 17.9841L19.7455 18.4863C19.8125 18.5533 19.846 18.6303 19.846 18.7173C19.846 18.8044 19.8125 18.8814 19.7455 18.9483L15.798 22.8959L19.7455 26.8434C19.8125 26.9104 19.846 26.9874 19.846 27.0745C19.846 27.1615 19.8125 27.2385 19.7455 27.3055ZM25.6819 16.5879L21.9353 29.5555C21.9085 29.6425 21.8566 29.7078 21.7796 29.7514C21.7026 29.7949 21.6239 29.8033 21.5435 29.7765L20.9208 29.6057C20.8337 29.5789 20.7684 29.527 20.7249 29.45C20.6814 29.373 20.673 29.291 20.6998 29.2039L24.4464 16.2363C24.4732 16.1492 24.5251 16.0839 24.6021 16.0404C24.6791 15.9969 24.7578 15.9885 24.8382 16.0153L25.4609 16.1861C25.548 16.2129 25.6133 16.2647 25.6568 16.3418C25.7003 16.4188 25.7087 16.5008 25.6819 16.5879ZM32.2812 23.1269L27.6004 27.8077C27.5335 27.8747 27.4565 27.9082 27.3694 27.9082C27.2824 27.9082 27.2054 27.8747 27.1384 27.8077L26.6362 27.3055C26.5692 27.2385 26.5357 27.1615 26.5357 27.0745C26.5357 26.9874 26.5692 26.9104 26.6362 26.8434L30.5837 22.8959L26.6362 18.9483C26.5692 18.8814 26.5357 18.8044 26.5357 18.7173C26.5357 18.6303 26.5692 18.5533 26.6362 18.4863L27.1384 17.9841C27.2054 17.9171 27.2824 17.8836 27.3694 17.8836C27.4565 17.8836 27.5335 17.9171 27.6004 17.9841L32.2812 22.6649C32.3482 22.7318 32.3817 22.8088 32.3817 22.8959C32.3817 22.9829 32.3482 23.0599 32.2812 23.1269Z" fill="#1C1C1C"/>
</svg>
