<svg width="24" height="24" viewBox="0 0 24 24" fill="none" xmlns="http://www.w3.org/2000/svg">
<g clip-path="url(#clip0_929_586)">
<path d="M2.12205 0.0010565C2.05899 -0.00455113 1.99551 0.00515882 1.93701 0.02936C1.87851 0.0535612 1.82672 0.0915373 1.78605 0.140057C0.448049 1.72506 0.0340494 6.02006 0.724049 8.17206C0.957422 8.88391 1.01101 9.64246 0.880049 10.3801C0.747049 11.1101 0.611049 11.9921 0.611049 12.6021C0.611049 18.8951 5.71205 24.0001 12.001 24.0001C18.291 24.0001 23.389 18.8981 23.389 12.6011C23.389 11.9881 23.256 11.1081 23.119 10.3791C22.9886 9.6417 23.0425 8.88352 23.276 8.17206C23.966 6.02206 23.5521 1.72506 22.2141 0.140057C22.1726 0.0922417 22.1205 0.0548089 22.062 0.0307608C22.0034 0.00671268 21.9401 -0.00328153 21.877 0.00157983C21.8139 0.0064412 21.7528 0.0260228 21.6986 0.058754C21.6444 0.0914853 21.5987 0.136455 21.5651 0.190057L19.916 2.78006C19.7196 3.0296 19.4366 3.19631 19.1231 3.24724C18.8096 3.29816 18.4884 3.22958 18.223 3.05506C16.3739 1.84359 14.2107 1.1998 12 1.20306C9.70305 1.20306 7.56505 1.88506 5.77705 3.05506C5.51143 3.22901 5.19029 3.29716 4.87691 3.24607C4.56354 3.19499 4.28067 3.02837 4.08405 2.77906L2.43405 0.190057C2.40016 0.136611 2.35436 0.0917363 2.30023 0.0589469C2.2461 0.0261575 2.18511 0.00634346 2.12205 0.0010565V0.0010565ZM12 3.80506C14.3387 3.80903 16.5804 4.7401 18.2338 6.39417C19.8871 8.04825 20.8171 10.2904 20.82 12.6291C20.816 17.4931 16.861 21.4521 12 21.4521C7.13905 21.4521 3.18405 17.4931 3.18405 12.6281C3.18535 10.9573 3.66028 9.32123 4.55376 7.90951C5.44724 6.49778 6.72265 5.36829 8.23205 4.65206C9.40907 4.09196 10.6966 3.80255 12 3.80506V3.80506ZM9.56605 8.73206C9.52163 8.73223 9.47803 8.74404 9.4396 8.76633C9.40117 8.78861 9.36926 8.82059 9.34705 8.85906C9.32492 8.89802 9.31354 8.94216 9.31407 8.98696C9.3146 9.03177 9.32701 9.07563 9.35005 9.11406L11.198 12.2251L8.71605 16.0121C8.69124 16.0505 8.67714 16.0949 8.67521 16.1406C8.67328 16.1863 8.68358 16.2317 8.70505 16.2721C8.72644 16.3124 8.75839 16.3462 8.79749 16.3698C8.83659 16.3934 8.88138 16.4059 8.92705 16.4061H10.786C10.8283 16.4057 10.8699 16.3949 10.907 16.3746C10.9442 16.3544 10.9758 16.3254 10.999 16.2901L12.34 14.1921L13.542 16.2781C13.564 16.3171 13.5959 16.3495 13.6346 16.372C13.6733 16.3945 13.7173 16.4063 13.762 16.4061H15.594C15.6387 16.4065 15.6827 16.3949 15.7212 16.3723C15.7598 16.3498 15.7915 16.3172 15.813 16.2781C15.8386 16.2407 15.8528 16.1967 15.8538 16.1514C15.8549 16.1062 15.8428 16.0616 15.819 16.0231L13.566 12.1151L11.633 8.85606C11.6106 8.81779 11.5784 8.78615 11.5398 8.76437C11.5011 8.74259 11.4574 8.73144 11.413 8.73206H9.56605Z" fill="black"/>
</g>
<defs>
<clipPath id="clip0_929_586">
<rect width="24" height="24" fill="white"/>
</clipPath>
</defs>
</svg>
