<svg width="43" height="44" viewBox="0 0 43 44" fill="none" xmlns="http://www.w3.org/2000/svg">
<g clip-path="url(#clip0_248_3223)">
<path d="M42.0045 10.4368C42.0178 10.4926 42.0258 10.5551 42.0258 10.6096V19.7387C42.0261 19.8552 41.9955 19.9697 41.9371 20.0706C41.8788 20.1714 41.7947 20.255 41.6935 20.3128L34.0314 24.7285V33.4696C34.0317 33.5862 34.0012 33.7007 33.9428 33.8015C33.8844 33.9023 33.8004 33.9859 33.6992 34.0437L17.7053 43.2486C17.6679 43.2693 17.6282 43.2854 17.587 43.2964L17.5458 43.3177C17.4346 43.3456 17.3182 43.3456 17.207 43.3177C17.1902 43.3127 17.1741 43.3055 17.1591 43.2964C17.1207 43.2846 17.0837 43.2685 17.0488 43.2486L1.06151 34.0437C0.959646 33.9861 0.874713 33.9028 0.815237 33.802C0.75576 33.7013 0.723832 33.5866 0.722656 33.4696V6.08351C0.722656 6.0277 0.735945 5.96525 0.750562 5.91077C0.757206 5.8895 0.76385 5.87622 0.771823 5.85495L0.813018 5.7513C0.819662 5.73004 0.840923 5.71675 0.854212 5.69549L0.916667 5.61178C0.939037 5.59796 0.959961 5.58194 0.979123 5.56394C1.00703 5.54268 1.02696 5.52274 1.05487 5.50813L9.04919 0.905013C9.15028 0.846957 9.26482 0.816406 9.3814 0.816406C9.49797 0.816406 9.61252 0.846957 9.71361 0.905013L17.7146 5.50813C17.7425 5.52141 17.7624 5.54268 17.7837 5.56394L17.8528 5.61178C17.8732 5.63842 17.8918 5.66639 17.9086 5.69549C17.9219 5.70878 17.9431 5.73004 17.9564 5.7513L17.9976 5.85495C18.0043 5.87622 18.0189 5.8895 18.0189 5.91077C18.039 5.96607 18.0485 6.02469 18.0468 6.08351V23.1857L24.7043 19.352V10.6109C24.7068 10.5324 24.7234 10.4549 24.7535 10.3823L24.7947 10.2787C24.8079 10.2508 24.8292 10.2375 24.8425 10.2162C24.8638 10.1883 24.877 10.1604 24.8983 10.1405C24.9196 10.1205 24.9461 10.1059 24.9674 10.0926C24.9874 10.0705 25.0107 10.0517 25.0365 10.0368L33.0375 5.43371C33.1374 5.37238 33.2524 5.33991 33.3697 5.33991C33.4869 5.33991 33.6019 5.37238 33.7019 5.43371L41.6962 10.0368C41.7241 10.0501 41.744 10.0714 41.7719 10.0926C41.7932 10.1059 41.8131 10.1205 41.8344 10.1405C41.8557 10.1604 41.8756 10.1883 41.8969 10.2162C41.9101 10.2375 41.9314 10.2508 41.9381 10.2787C41.9593 10.3132 41.966 10.3478 41.9792 10.3823C41.9925 10.3956 42.0005 10.4169 42.0072 10.4381L42.0045 10.4368ZM40.6889 19.3507V11.7656L37.8931 13.3709L34.0314 15.5994V23.1844L40.6889 19.3507ZM32.7026 33.0816V25.4886L28.8955 27.6546L18.0428 33.8563V41.5184L32.7026 33.0816ZM2.04884 7.23828V33.0816L16.7073 41.5184V33.8563L9.0452 29.5163C9.0173 29.503 8.99736 29.4818 8.9761 29.4605C8.95484 29.4472 8.92826 29.4326 8.91365 29.4127H8.907C8.88574 29.3914 8.87245 29.3648 8.85119 29.3436C8.8379 29.3223 8.81664 29.3024 8.80335 29.2745C8.78788 29.2484 8.77624 29.2202 8.7688 29.1908C8.75551 29.1629 8.7409 29.1429 8.73425 29.115C8.72761 29.0871 8.72096 29.0526 8.72096 29.018C8.71432 28.9901 8.70767 28.9702 8.70767 28.9423V11.072L4.84606 8.84352L2.04884 7.23828ZM9.37874 2.24847L2.72124 6.08219L9.37874 9.9159L16.0362 6.08219L9.37874 2.24847ZM12.8457 26.1823L16.7073 23.9538V7.23961L13.9114 8.84485L10.0432 11.0733V27.7875L12.8457 26.1823ZM33.367 6.77451L26.7015 10.6082L33.367 14.4419L40.0245 10.6082L33.367 6.77451ZM32.7026 15.5994L26.0371 11.7656V19.3507L29.8987 21.5792L32.7013 23.1844L32.7026 15.5994ZM17.3731 32.7016L32.0249 24.3405L25.374 20.5068L10.7288 28.937L17.3731 32.7016Z" fill="black"/>
</g>
<defs>
<clipPath id="clip0_248_3223">
<rect width="42.523" height="42.523" fill="white" transform="translate(0.111572 0.815918)"/>
</clipPath>
</defs>
</svg>
