<svg width="161" height="49" viewBox="0 0 161 49" fill="none" xmlns="http://www.w3.org/2000/svg">
<path d="M17.0416 15.2402C15.2816 15.2402 13.8516 16.6702 13.8516 18.4302V29.2502V34.3902V34.4002H13.8616H19.0116H29.5416H31.5216H31.5316C32.6316 34.4002 33.6816 33.8102 34.2516 32.8602C34.8016 31.9502 34.7016 30.9202 34.7016 29.9002C34.7016 29.6802 34.7016 29.4602 34.7016 29.2402V15.2402H29.5416V29.2402H19.0116V15.2402H17.0416Z" fill="black"/>
<path d="M41.63 12.12C44.97 12.12 47.69 9.4 47.69 6.06C47.69 2.72 44.97 0 41.63 0C39.07 0 36.87 1.6 35.99 3.86H17.58C10.02 3.86 3.86 10.01 3.86 17.58V36.84H3.93C1.64 37.71 0 39.92 0 42.51C0 45.85 2.72 48.57 6.06 48.57C8.65 48.57 10.86 46.93 11.73 44.64V44.71H30.68C38.24 44.71 44.4 38.56 44.4 30.99V29.24H40V30.99C40 36.12 35.82 40.3 30.69 40.3H11.73V40.37C11.12 38.74 9.82 37.45 8.2 36.83H8.27V17.57C8.27 12.44 12.45 8.26 17.58 8.26H35.99C36.87 10.51 39.06 12.12 41.63 12.12ZM41.63 1.92C43.91 1.92 45.76 3.77 45.76 6.05C45.76 8.33 43.91 10.18 41.63 10.18C39.35 10.18 37.5 8.33 37.5 6.05C37.5 3.77 39.35 1.92 41.63 1.92ZM10.2 42.5C10.2 44.78 8.35 46.63 6.07 46.63C3.79 46.63 1.94 44.78 1.94 42.5C1.94 40.22 3.79 38.37 6.07 38.37C8.34 38.37 10.2 40.22 10.2 42.5Z" fill="black"/>
<path d="M53.6211 25.3585V19.7285H55.4711V25.2885C55.4711 27.3385 56.4011 28.2285 58.0111 28.2285C59.6211 28.2285 60.5311 27.3485 60.5311 25.2885V19.7285H62.3511V25.3585C62.3511 28.2685 60.7111 29.8485 57.9911 29.8485C55.2611 29.8485 53.6211 28.2685 53.6211 25.3585Z" fill="black"/>
<path d="M72.283 25.3498V29.7098H70.503V25.5798C70.503 24.2298 69.833 23.5698 68.693 23.5698C67.423 23.5698 66.573 24.3398 66.573 25.8698V29.7198H64.793V22.0998H66.493V23.0798C67.073 22.3798 68.003 22.0098 69.113 22.0098C70.933 22.0098 72.283 23.0498 72.283 25.3498Z" fill="black"/>
<path d="M74.3125 19.7692C74.3125 19.1692 74.7925 18.6992 75.4525 18.6992C76.1125 18.6992 76.5925 19.1392 76.5925 19.7292C76.5925 20.3592 76.1225 20.8392 75.4525 20.8392C74.7925 20.8392 74.3125 20.3692 74.3125 19.7692ZM74.5525 22.0992H76.3325V29.7092H74.5525V22.0992Z" fill="black"/>
<path d="M78.043 25.8998C78.043 23.6198 79.753 22.0098 82.163 22.0098C83.273 22.0098 84.223 22.3598 84.873 23.0198C85.213 23.3698 85.103 23.9598 84.683 24.2098L84.623 24.2498C84.333 24.4198 83.953 24.3998 83.713 24.1598C83.283 23.7298 82.743 23.5298 82.153 23.5298C80.843 23.5298 79.843 24.4398 79.843 25.9098C79.843 27.3898 80.843 28.2898 82.153 28.2898C82.743 28.2898 83.283 28.0898 83.713 27.6598C83.953 27.4198 84.333 27.3998 84.623 27.5698L84.683 27.6098C85.103 27.8598 85.213 28.4498 84.873 28.7998C84.223 29.4598 83.283 29.8198 82.163 29.8198C79.753 29.8098 78.043 28.1798 78.043 25.8998Z" fill="black"/>
<path d="M86.2109 25.8998C86.2109 23.6198 87.9209 22.0098 90.2609 22.0098C92.6309 22.0098 94.3209 23.6198 94.3209 25.8998C94.3209 28.1798 92.6209 29.8098 90.2609 29.8098C87.9209 29.8098 86.2109 28.1798 86.2109 25.8998ZM92.5209 25.8998C92.5209 24.4498 91.5509 23.5198 90.2509 23.5198C88.9709 23.5198 88.0009 24.4498 88.0009 25.8998C88.0009 27.3498 88.9709 28.2798 90.2509 28.2798C91.5509 28.2798 92.5209 27.3598 92.5209 25.8998Z" fill="black"/>
<path d="M99.4219 24.7198C99.4219 21.7398 101.702 19.5898 104.772 19.5898C106.052 19.5898 107.192 19.9498 108.072 20.6398C108.452 20.9298 108.472 21.4898 108.122 21.8198L108.042 21.8898C107.752 22.1598 107.322 22.1598 107.012 21.9198C106.392 21.4498 105.662 21.2098 104.852 21.2098C102.782 21.2098 101.292 22.6598 101.292 24.7198C101.292 26.7698 102.792 28.2298 104.852 28.2298C105.662 28.2298 106.382 27.9998 107.012 27.5198C107.322 27.2798 107.762 27.2798 108.052 27.5498L108.132 27.6298C108.472 27.9598 108.452 28.5198 108.082 28.8098C107.202 29.4998 106.062 29.8598 104.762 29.8598C101.702 29.8498 99.4219 27.6998 99.4219 24.7198Z" fill="black"/>
<path d="M109.422 25.8998C109.422 23.6198 111.132 22.0098 113.472 22.0098C115.842 22.0098 117.532 23.6198 117.532 25.8998C117.532 28.1798 115.832 29.8098 113.472 29.8098C111.132 29.8098 109.422 28.1798 109.422 25.8998ZM115.732 25.8998C115.732 24.4498 114.762 23.5198 113.462 23.5198C112.182 23.5198 111.212 24.4498 111.212 25.8998C111.212 27.3498 112.182 28.2798 113.462 28.2798C114.762 28.2798 115.732 27.3598 115.732 25.8998Z" fill="black"/>
<path d="M126.74 25.3498V29.7098H124.96V25.5798C124.96 24.2298 124.29 23.5698 123.15 23.5698C121.88 23.5698 121.03 24.3398 121.03 25.8698V29.7198H119.25V22.0998H120.95V23.0798C121.53 22.3798 122.46 22.0098 123.57 22.0098C125.38 22.0098 126.74 23.0498 126.74 25.3498Z" fill="black"/>
<path d="M136.502 25.3498V29.7098H134.722V25.5798C134.722 24.2298 134.052 23.5698 132.912 23.5698C131.642 23.5698 130.792 24.3398 130.792 25.8698V29.7198H129.012V22.0998H130.712V23.0798C131.292 22.3798 132.222 22.0098 133.332 22.0098C135.152 22.0098 136.502 23.0498 136.502 25.3498Z" fill="black"/>
<path d="M145.973 26.47H140.003C140.213 27.58 141.143 28.29 142.473 28.29C143.333 28.29 144.003 28.02 144.543 27.46L145.493 28.56C144.813 29.37 143.743 29.8 142.433 29.8C139.883 29.8 138.223 28.16 138.223 25.89C138.223 23.62 139.893 22 142.153 22C144.373 22 146.003 23.55 146.003 25.93C146.003 26.09 145.983 26.3 145.973 26.47ZM139.983 25.29H144.303C144.163 24.19 143.323 23.44 142.153 23.44C140.993 23.44 140.153 24.18 139.983 25.29Z" fill="black"/>
<path d="M147.082 25.8998C147.082 23.6198 148.792 22.0098 151.202 22.0098C152.312 22.0098 153.262 22.3598 153.912 23.0198C154.252 23.3698 154.142 23.9598 153.722 24.2098L153.662 24.2498C153.372 24.4198 152.992 24.3998 152.752 24.1598C152.322 23.7298 151.782 23.5298 151.192 23.5298C149.882 23.5298 148.882 24.4398 148.882 25.9098C148.882 27.3898 149.882 28.2898 151.192 28.2898C151.782 28.2898 152.322 28.0898 152.752 27.6598C152.992 27.4198 153.372 27.3998 153.662 27.5698L153.722 27.6098C154.142 27.8598 154.252 28.4498 153.912 28.7998C153.262 29.4598 152.322 29.8198 151.202 29.8198C148.792 29.8098 147.082 28.1798 147.082 25.8998Z" fill="black"/>
<path d="M156.332 23.6199V22.1599V20.4199H158.112V22.1599H160.152V23.5899H158.112V27.2099C158.112 27.9499 158.482 28.3499 159.162 28.3499C159.532 28.3499 159.892 28.2499 160.162 28.0399L160.662 29.3099C160.232 29.6499 159.592 29.8199 158.952 29.8199C157.282 29.8199 156.332 28.9399 156.332 27.2499V23.5899" fill="black"/>
</svg>
