<svg width="45" height="45" viewBox="0 0 45 45" fill="none" xmlns="http://www.w3.org/2000/svg">
<circle cx="22.5" cy="22.5" r="22.5" fill="#CCFBC4"/>
<path d="M28.797 30.8185V31.8577H14.9962V14.1423H28.797V15.1815C28.8509 15.1761 28.9101 15.1708 28.9639 15.1708H30.4124C30.4124 12.8715 30.4124 11.6923 30.4124 11.6923C30.4124 10.483 29.4191 9.53845 28.2532 9.53845H15.5347C14.3447 9.53845 13.3809 10.5077 13.3809 11.6923V34.3077C13.3809 35.4977 14.3447 36.4615 15.5347 36.4615H28.2532C28.8455 36.4615 29.3839 36.2192 29.777 35.8315C30.1701 35.4438 30.4124 34.9054 30.4124 34.3077V30.8292H28.9639C28.9101 30.8292 28.8509 30.8238 28.797 30.8185ZM26.2893 11.5713H26.4513C26.7486 11.5713 26.9897 11.8123 26.9897 12.1097C26.9897 12.4071 26.7486 12.6482 26.4513 12.6482H26.2893C25.9919 12.6482 25.7508 12.4071 25.7508 12.1097C25.7508 11.8123 25.9919 11.5713 26.2893 11.5713ZM20.2789 11.5713H23.5097C23.807 11.5713 24.0482 11.8123 24.0482 12.1097C24.0482 12.4071 23.807 12.6482 23.5097 12.6482H20.2789C19.9815 12.6482 19.7405 12.4071 19.7405 12.1097C19.7405 11.8123 19.9815 11.5713 20.2789 11.5713ZM23.5373 34.4303H20.2516C19.9542 34.4303 19.7131 34.1893 19.7131 33.8919C19.7131 33.5945 19.9542 33.3534 20.2516 33.3534H23.5373C23.8347 33.3534 24.0758 33.5945 24.0758 33.8919C24.0758 34.1893 23.8347 34.4303 23.5373 34.4303Z" fill="#1C1C1C"/>
<path d="M36.2111 21.5731L35.1719 21.3092C35.0803 21.0077 34.9619 20.7169 34.8219 20.4477L35.3711 19.5323C35.4949 19.3169 35.4626 19.0477 35.2903 18.8754L34.0034 17.5884C33.8257 17.4108 33.5565 17.3785 33.3465 17.5077L32.4203 18.0569C32.1457 17.9115 31.8603 17.7984 31.5696 17.7015L31.3057 16.6569C31.2465 16.42 31.0311 16.2477 30.7834 16.2477H28.9634C28.7157 16.2477 28.5003 16.42 28.4411 16.6569L28.1772 17.6961C27.8919 17.7877 27.6065 17.9061 27.3211 18.0515L26.4003 17.5023C26.1903 17.3731 25.9211 17.4054 25.7434 17.5831L24.4565 18.87C24.2842 19.0423 24.2519 19.3115 24.3757 19.5269L24.9249 20.4423C24.7796 20.7169 24.6611 21.0077 24.5696 21.3092L23.5249 21.5731C23.288 21.6323 23.1211 21.8477 23.1211 22.09V23.91C23.1211 24.1577 23.288 24.3731 23.5249 24.4323L24.5749 24.6961C24.6665 24.9977 24.7849 25.2831 24.9196 25.5523L24.3703 26.4731C24.2411 26.6831 24.2788 26.9577 24.4511 27.13L25.738 28.4169C25.9157 28.5946 26.1849 28.6269 26.3949 28.4977L27.3211 27.9485C27.5903 28.0885 27.8757 28.2069 28.1719 28.3038L28.4411 29.3485C28.5003 29.5854 28.7157 29.7523 28.9634 29.7523H30.778C31.0257 29.7523 31.2411 29.5854 31.3003 29.3485L31.5642 28.3038C31.8496 28.2123 32.1349 28.0938 32.4149 27.9485L33.3411 28.5031C33.5565 28.6323 33.8257 28.6 34.0034 28.4223L35.2849 27.1354C35.4572 26.9631 35.4896 26.6938 35.3657 26.4838L34.8165 25.5523C34.9565 25.2777 35.0749 24.9923 35.1665 24.7015L36.2111 24.4377C36.4534 24.3785 36.6203 24.1631 36.6203 23.9154V22.09C36.6203 21.8477 36.4534 21.6323 36.2111 21.5731ZM29.8734 25.9238C28.2634 25.9238 26.9496 24.6154 26.9442 23.0054C26.9442 21.4546 28.1449 20.1785 29.6849 20.0869C29.7334 20.0815 29.798 20.0761 29.8734 20.0761C31.4834 20.0761 32.7972 21.39 32.7972 22.9946C32.7972 24.61 31.4834 25.9238 29.8734 25.9238Z" fill="#1C1C1C"/>
</svg>
