<svg width="65" height="65" viewBox="0 0 65 65" fill="none" xmlns="http://www.w3.org/2000/svg">
<path d="M43.2656 12.1875C43.104 12.1875 42.949 12.2517 42.8347 12.366C42.7205 12.4803 42.6562 12.6353 42.6562 12.7969V23.9627L40.1253 22.4859C39.9691 22.3935 39.7909 22.3448 39.6094 22.3448C39.4279 22.3448 39.2497 22.3935 39.0934 22.4859L33.0119 26.0325C32.8564 26.1223 32.7272 26.2514 32.6374 26.4068C32.5476 26.5622 32.5002 26.7386 32.5 26.9181V34.0194C32.5 34.385 32.695 34.7222 33.0119 34.905L39.0934 38.4516C39.2497 38.544 39.4279 38.5927 39.6094 38.5927C39.7909 38.5927 39.9691 38.544 40.1253 38.4516L46.2069 34.905C46.3624 34.8152 46.4915 34.6861 46.5814 34.5307C46.6712 34.3753 46.7186 34.1989 46.7188 34.0194V14.6859C46.7182 14.5088 46.6715 14.3348 46.5832 14.1813C46.4948 14.0277 46.3679 13.8999 46.215 13.8105L43.5683 12.2708C43.4772 12.217 43.3735 12.1882 43.2677 12.1875H43.2656ZM23.3594 22.3478C23.1782 22.3476 23.0002 22.3952 22.8434 22.4859L16.7619 26.0325C16.6064 26.1223 16.4772 26.2514 16.3874 26.4068C16.2976 26.5622 16.2502 26.7386 16.25 26.9181V34.0194C16.25 34.385 16.445 34.7222 16.7619 34.905L22.8434 38.4516C23.1623 38.6344 23.5544 38.6344 23.8753 38.4516L29.9569 34.905C30.1124 34.8152 30.2415 34.6861 30.3314 34.5307C30.4212 34.3753 30.4686 34.1989 30.4688 34.0194V26.9181C30.469 26.7385 30.4218 26.562 30.3319 26.4065C30.242 26.251 30.1126 26.122 29.9569 26.0325L23.8753 22.4859C23.7185 22.3952 23.5405 22.3476 23.3594 22.3478ZM55.8594 22.3478C55.6781 22.3469 55.5 22.3946 55.3434 22.4859L49.2619 26.0325C49.1064 26.1223 48.9772 26.2514 48.8874 26.4068C48.7976 26.5622 48.7502 26.7386 48.75 26.9181V34.0194C48.75 34.385 48.945 34.7222 49.2619 34.905L55.1606 38.4698C55.3165 38.5645 55.4951 38.6152 55.6775 38.6166C55.8598 38.618 56.0392 38.5701 56.1966 38.478L59.0972 36.792C59.1654 36.7518 59.222 36.6945 59.2613 36.6258C59.3006 36.557 59.3212 36.4792 59.3212 36.4C59.3212 36.3208 59.3006 36.243 59.2613 36.1742C59.222 36.1055 59.1654 36.0482 59.0972 36.008L52.8125 32.305V28.6609L55.8594 26.8877L58.9062 28.6609V31.2C58.9062 31.5392 59.1906 31.592 59.3816 31.4783C60.4084 30.8788 61.4362 30.2809 62.465 29.6847C62.618 29.5954 62.7451 29.4676 62.8334 29.314C62.9218 29.1604 62.9684 28.9864 62.9688 28.8092V26.9202C62.969 26.7405 62.9218 26.564 62.8319 26.4085C62.742 26.253 62.6126 26.124 62.4569 26.0345L56.3753 22.488C56.2187 22.3969 56.0406 22.3492 55.8594 22.3498V22.3478ZM7.10938 22.3519C6.92814 22.351 6.74998 22.3987 6.59344 22.49L0.511875 26.0325C0.356206 26.1231 0.227016 26.2529 0.137198 26.409C0.0473792 26.5651 7.29864e-05 26.7421 0 26.9222V35.9877C0 36.4305 0.479375 36.7047 0.86125 36.4833L3.55875 34.9131C3.71195 34.8235 3.83904 34.6953 3.92741 34.5414C4.01578 34.3875 4.06235 34.2131 4.0625 34.0356V28.667L7.10938 26.8897L10.1562 28.667V34.0356C10.1562 34.3972 10.3492 34.7283 10.66 34.9111L13.3575 36.4833C13.4446 36.534 13.5435 36.5609 13.6444 36.5612C13.7452 36.5615 13.8443 36.5351 13.9316 36.4849C14.019 36.4346 14.0916 36.3621 14.142 36.2748C14.1924 36.1875 14.2189 36.0885 14.2188 35.9877V26.9222C14.2187 26.7421 14.1714 26.5651 14.0816 26.409C13.9917 26.2529 13.8625 26.1231 13.7069 26.0325L7.62531 22.49C7.46877 22.3987 7.29061 22.351 7.10938 22.3519ZM39.6094 26.8856L42.6562 28.663V32.2745L39.6094 34.0519L36.5625 32.2745V28.6609L39.6094 26.8836V26.8856ZM55.8594 28.4456L54.1186 29.4613V31.4884L55.8594 32.5L57.6002 31.4884V29.4613L55.8594 28.4456ZM31.2934 36.5584C31.0824 36.5572 30.8747 36.6104 30.6902 36.7128L24.9783 40.0156C24.7945 40.1198 24.6417 40.2711 24.5357 40.4539C24.4297 40.6366 24.3742 40.8443 24.375 41.0556V47.6491C24.375 48.0736 24.6127 48.4737 24.9783 48.6891L26.4814 49.5462C27.2025 49.9017 27.4686 49.9017 27.7956 49.9017C28.8722 49.9017 29.4856 49.2578 29.4856 48.1203V41.6061C29.4862 41.5839 29.4823 41.5618 29.4741 41.5411C29.466 41.5204 29.4538 41.5016 29.4383 41.4857C29.4228 41.4698 29.4042 41.4571 29.3838 41.4485C29.3633 41.4399 29.3413 41.4355 29.3191 41.4355H28.5959C28.5507 41.4355 28.5073 41.4534 28.4753 41.4854C28.4433 41.5174 28.4253 41.5608 28.4253 41.6061V48.1203C28.4253 48.6139 27.9033 49.1217 27.0522 48.6972L25.4881 47.7953C25.4626 47.7792 25.4415 47.7571 25.4266 47.7309C25.4117 47.7047 25.4035 47.6751 25.4028 47.645V41.0516C25.4028 40.9927 25.4312 40.9236 25.4902 40.8931L31.202 37.6005C31.2294 37.5854 31.2601 37.5774 31.2914 37.5774C31.3227 37.5774 31.3534 37.5854 31.3808 37.6005L37.0988 40.8911C37.1577 40.9236 37.1861 40.9825 37.1861 41.0516V47.645C37.186 47.6766 37.1779 47.7077 37.1626 47.7354C37.1474 47.763 37.1254 47.7864 37.0988 47.8034L31.3808 51.1083C31.3534 51.1234 31.3227 51.1313 31.2914 51.1313C31.2601 51.1313 31.2294 51.1234 31.202 51.1083L29.7436 50.2389C29.703 50.2186 29.642 50.2084 29.6034 50.2288C29.3361 50.4001 29.0463 50.5334 28.7422 50.6248C28.6427 50.6553 28.5086 50.7162 28.795 50.8747L30.6902 52.002C30.8755 52.1029 31.0825 52.1572 31.2934 52.1605C31.5036 52.1626 31.71 52.1048 31.8886 51.9939L37.6025 48.6891C37.7863 48.5849 37.9391 48.4336 38.0451 48.2508C38.1511 48.0681 38.2066 47.8604 38.2058 47.6491V41.0556C38.2031 40.845 38.1462 40.6387 38.0405 40.4565C37.9348 40.2743 37.784 40.1225 37.6025 40.0156L31.8886 36.7148C31.7072 36.612 31.5019 36.5587 31.2934 36.5605V36.5584ZM40.2045 39.6012C40.0605 39.6015 39.9179 39.6302 39.7849 39.6855C39.652 39.7409 39.5312 39.8219 39.4295 39.924C39.2242 40.13 39.1091 40.4092 39.1097 40.7002C39.1102 40.9911 39.2263 41.2698 39.4324 41.4752C39.6385 41.6805 39.9177 41.7955 40.2086 41.795C40.4995 41.7945 40.7783 41.6784 40.9836 41.4723C41.1889 41.2662 41.304 40.987 41.3034 40.6961C41.3029 40.4052 41.1868 40.1264 40.9807 39.9211C40.7747 39.7158 40.4954 39.6007 40.2045 39.6012ZM40.1923 39.7759C40.7083 39.7759 41.1267 40.1822 41.1267 40.6961C41.123 40.9428 41.0234 41.1783 40.849 41.3527C40.6745 41.5272 40.439 41.6268 40.1923 41.6305C39.947 41.6278 39.7128 41.5279 39.5411 41.3527C39.3693 41.1776 39.2741 40.9414 39.2763 40.6961C39.2763 40.1822 39.6886 39.7759 40.1923 39.7759ZM39.7922 40.0745V41.3075H40.0258V40.8159H40.2452C40.3345 40.8159 40.3548 40.8525 40.3752 40.9216C40.3752 40.9317 40.4117 41.2527 40.4219 41.3116H40.6758C40.6435 41.2045 40.6238 41.0941 40.6169 40.9825C40.5884 40.8241 40.5803 40.7144 40.4117 40.7042C40.5011 40.6737 40.6494 40.627 40.6494 40.3995C40.6494 40.0725 40.365 40.0745 40.2167 40.0745H39.7902H39.7922ZM40.0258 40.2716H40.2248C40.2858 40.2716 40.4036 40.2716 40.4036 40.4381C40.4036 40.5072 40.3731 40.6209 40.2127 40.6169H40.0258V40.2716ZM32.825 41.2791C31.1939 41.2791 30.225 41.9758 30.225 43.1214C30.225 44.3767 31.1959 44.7119 32.758 44.8683C34.6267 45.0572 34.773 45.3253 34.773 45.6909C34.773 46.3328 34.257 46.5989 33.0505 46.5989C31.5372 46.5989 31.2061 46.2252 31.0964 45.4736C31.0863 45.3923 31.0152 45.3334 30.9258 45.3334H30.1823C30.1601 45.3334 30.1381 45.3379 30.1177 45.3465C30.0972 45.3551 30.0786 45.3678 30.0631 45.3837C30.0476 45.3996 30.0354 45.4184 30.0273 45.4391C30.0191 45.4598 30.0152 45.4818 30.0158 45.5041C30.0158 46.4628 30.5398 47.6105 33.0403 47.6105C34.8745 47.6105 35.9125 46.8995 35.9125 45.6523C35.9125 44.4173 35.0797 44.0883 33.3206 43.8506C31.5412 43.613 31.3645 43.4931 31.3645 43.0767C31.3645 42.7314 31.5108 42.2784 32.827 42.2784C34.0011 42.2784 34.4398 42.5364 34.6186 43.3266C34.6389 43.4078 34.6937 43.4545 34.773 43.4545H35.5144C35.5631 43.4545 35.6058 43.4342 35.6342 43.4058C35.6647 43.3672 35.683 43.3286 35.6748 43.2798C35.557 41.9148 34.6552 41.2791 32.825 41.2791Z" fill="white"/>
</svg>
