<svg width="45" height="45" viewBox="0 0 45 45" fill="none" xmlns="http://www.w3.org/2000/svg">
<circle cx="22.5" cy="22.5" r="22.5" fill="#FCF6C7"/>
<path d="M30.6503 20.04L25.8103 19.62L23.9203 15.17C23.5803 14.36 22.4203 14.36 22.0803 15.17L20.1903 19.63L15.3603 20.04C14.4803 20.11 14.1203 21.21 14.7903 21.79L18.4603 24.97L17.3603 29.69C17.1603 30.55 18.0903 31.23 18.8503 30.77L23.0003 28.27L27.1503 30.78C27.9103 31.24 28.8403 30.56 28.6403 29.7L27.5403 24.97L31.2103 21.79C31.8803 21.21 31.5303 20.11 30.6503 20.04ZM23.0003 26.4L19.2403 28.67L20.2403 24.39L16.9203 21.51L21.3003 21.13L23.0003 17.1L24.7103 21.14L29.0903 21.52L25.7703 24.4L26.7703 28.68L23.0003 26.4Z" fill="#1C1C1C"/>
</svg>
